<?xml version="1.0" encoding="utf-8"?>
<!-- Generator: Adobe Illustrator 26.3.1, SVG Export Plug-In . SVG Version: 6.00 Build 0)  -->
<svg version="1.1" id="Layer_1" xmlns="http://www.w3.org/2000/svg" xmlns:xlink="http://www.w3.org/1999/xlink" x="0px" y="0px"
	 viewBox="0 0 375 812" style="enable-background:new 0 0 375 812;" xml:space="preserve">
<style type="text/css">
	.st0{fill:#212952;}
	.st1{fill:url(#SVGID_1_);}
	.st2{fill:url(#SVGID_00000024680979745352767400000014178224036678106249_);}
	.st3{fill:url(#SVGID_00000107585475532157758780000014842239430718111915_);}
</style>
<path class="st0" d="M40,0h295c22.1,0,40,17.9,40,40v732c0,22.1-17.9,40-40,40H40c-22.1,0-40-17.9-40-40V40C0,17.9,17.9,0,40,0z"/>
<radialGradient id="SVGID_1_" cx="-62.2993" cy="655.9701" r="0.8644" gradientTransform="matrix(-256.0035 495.9977 488.583 252.1765 -336088.6875 -134510.9531)" gradientUnits="userSpaceOnUse">
	<stop  offset="0" style="stop-color:#2E519B"/>
	<stop  offset="0.1743" style="stop-color:#2D4F97;stop-opacity:0.8192"/>
	<stop  offset="0.359" style="stop-color:#2B4A8A;stop-opacity:0.6276"/>
	<stop  offset="0.5484" style="stop-color:#274175;stop-opacity:0.431"/>
	<stop  offset="0.7411" style="stop-color:#213457;stop-opacity:0.2311"/>
	<stop  offset="0.9346" style="stop-color:#1A2431;stop-opacity:3.031957e-02"/>
	<stop  offset="0.9638" style="stop-color:#19212B;stop-opacity:0"/>
</radialGradient>
<path class="st1" d="M40,0h295c22.1,0,40,17.9,40,40v732c0,22.1-17.9,40-40,40H40c-22.1,0-40-17.9-40-40V40C0,17.9,17.9,0,40,0z"/>
<radialGradient id="SVGID_00000005944843739440756180000012366356956677916812_" cx="-61.4622" cy="655.7461" r="1" gradientTransform="matrix(-4.9999 -287.9996 -254.7636 4.4229 166945.9375 -19789.3906)" gradientUnits="userSpaceOnUse">
	<stop  offset="0" style="stop-color:#364E82"/>
	<stop  offset="1" style="stop-color:#1E325C;stop-opacity:0"/>
</radialGradient>
<path style="fill:url(#SVGID_00000005944843739440756180000012366356956677916812_);" d="M40,0h295c22.1,0,40,17.9,40,40v732
	c0,22.1-17.9,40-40,40H40c-22.1,0-40-17.9-40-40V40C0,17.9,17.9,0,40,0z"/>
<radialGradient id="SVGID_00000083793390730333787460000009397078882452164760_" cx="-60.3004" cy="654.875" r="1" gradientTransform="matrix(-4.9999 -287.9996 -199.3705 3.4612 130670.3516 -19159.6191)" gradientUnits="userSpaceOnUse">
	<stop  offset="0" style="stop-color:#36717F"/>
	<stop  offset="1" style="stop-color:#1E325C;stop-opacity:0"/>
</radialGradient>
<path style="fill:url(#SVGID_00000083793390730333787460000009397078882452164760_);" d="M40,0h295c22.1,0,40,17.9,40,40v732
	c0,22.1-17.9,40-40,40H40c-22.1,0-40-17.9-40-40V40C0,17.9,17.9,0,40,0z"/>
</svg>
